<mxfile host="app.diagrams.net" agent="Mozilla/5.0 (Macintosh; Intel Mac OS X 10_15_7) AppleWebKit/537.36 (KHTML, like Gecko) Chrome/137.0.0.0 Safari/537.36" version="27.1.6">
  <diagram name="Page-1" id="qjQhUiNkGIXk8sPegivS">
    <mxGraphModel dx="2178" dy="871" grid="1" gridSize="10" guides="1" tooltips="1" connect="1" arrows="1" fold="1" page="1" pageScale="1" pageWidth="827" pageHeight="1169" math="0" shadow="0">
      <root>
        <mxCell id="0" />
        <mxCell id="1" parent="0" />
        <mxCell id="KwXzedkXwJMO5qFz7Lfk-1" value="&lt;h1 style=&quot;margin-top: 0px;&quot;&gt;Dropbox&lt;/h1&gt;" style="text;html=1;whiteSpace=wrap;overflow=hidden;rounded=0;" vertex="1" parent="1">
          <mxGeometry x="234" y="10" width="156" height="40" as="geometry" />
        </mxCell>
        <mxCell id="KwXzedkXwJMO5qFz7Lfk-2" value="&lt;b&gt;Functional requirements:&lt;/b&gt;&lt;div&gt;Upload a file&lt;/div&gt;&lt;div&gt;Download a file&lt;/div&gt;&lt;div&gt;Sync data&lt;/div&gt;" style="text;html=1;align=center;verticalAlign=middle;whiteSpace=wrap;rounded=0;" vertex="1" parent="1">
          <mxGeometry x="637" y="40" width="190" height="60" as="geometry" />
        </mxCell>
        <mxCell id="KwXzedkXwJMO5qFz7Lfk-3" value="&lt;b&gt;Non Functional requirements&lt;/b&gt;:&lt;div&gt;Availability &amp;gt;&amp;gt; Consistency&lt;br&gt;low latency for uploads and downloads&lt;br&gt;Data Integrity (We want it to true not immediately but eventually that is why I didn&#39;t focus on consistency&lt;span style=&quot;background-color: transparent; color: light-dark(rgb(0, 0, 0), rgb(255, 255, 255));&quot;&gt;&amp;nbsp;)&lt;/span&gt;&lt;/div&gt;&lt;div&gt;Resume uploads&lt;/div&gt;" style="text;html=1;align=center;verticalAlign=middle;whiteSpace=wrap;rounded=0;" vertex="1" parent="1">
          <mxGeometry x="650" y="170" width="190" height="60" as="geometry" />
        </mxCell>
        <mxCell id="KwXzedkXwJMO5qFz7Lfk-4" value="Core Entities" style="swimlane;fontStyle=0;childLayout=stackLayout;horizontal=1;startSize=30;horizontalStack=0;resizeParent=1;resizeParentMax=0;resizeLast=0;collapsible=1;marginBottom=0;whiteSpace=wrap;html=1;" vertex="1" parent="1">
          <mxGeometry x="660" y="300" width="140" height="120" as="geometry" />
        </mxCell>
        <mxCell id="KwXzedkXwJMO5qFz7Lfk-5" value="File store in S3" style="text;strokeColor=none;fillColor=none;align=left;verticalAlign=middle;spacingLeft=4;spacingRight=4;overflow=hidden;points=[[0,0.5],[1,0.5]];portConstraint=eastwest;rotatable=0;whiteSpace=wrap;html=1;" vertex="1" parent="KwXzedkXwJMO5qFz7Lfk-4">
          <mxGeometry y="30" width="140" height="30" as="geometry" />
        </mxCell>
        <mxCell id="KwXzedkXwJMO5qFz7Lfk-6" value="File Metadata" style="text;strokeColor=none;fillColor=none;align=left;verticalAlign=middle;spacingLeft=4;spacingRight=4;overflow=hidden;points=[[0,0.5],[1,0.5]];portConstraint=eastwest;rotatable=0;whiteSpace=wrap;html=1;" vertex="1" parent="KwXzedkXwJMO5qFz7Lfk-4">
          <mxGeometry y="60" width="140" height="30" as="geometry" />
        </mxCell>
        <mxCell id="KwXzedkXwJMO5qFz7Lfk-7" value="User (Not required to deep dive)" style="text;strokeColor=none;fillColor=none;align=left;verticalAlign=middle;spacingLeft=4;spacingRight=4;overflow=hidden;points=[[0,0.5],[1,0.5]];portConstraint=eastwest;rotatable=0;whiteSpace=wrap;html=1;" vertex="1" parent="KwXzedkXwJMO5qFz7Lfk-4">
          <mxGeometry y="90" width="140" height="30" as="geometry" />
        </mxCell>
        <mxCell id="KwXzedkXwJMO5qFz7Lfk-14" style="edgeStyle=orthogonalEdgeStyle;rounded=0;orthogonalLoop=1;jettySize=auto;html=1;" edge="1" parent="1" source="KwXzedkXwJMO5qFz7Lfk-8" target="KwXzedkXwJMO5qFz7Lfk-10">
          <mxGeometry relative="1" as="geometry" />
        </mxCell>
        <mxCell id="KwXzedkXwJMO5qFz7Lfk-8" value="" style="rounded=0;whiteSpace=wrap;html=1;" vertex="1" parent="1">
          <mxGeometry x="-100" y="160" width="80" height="190" as="geometry" />
        </mxCell>
        <mxCell id="KwXzedkXwJMO5qFz7Lfk-9" value="Client" style="shape=umlActor;verticalLabelPosition=bottom;verticalAlign=top;html=1;outlineConnect=0;" vertex="1" parent="1">
          <mxGeometry x="-70" y="170" width="20" height="30" as="geometry" />
        </mxCell>
        <mxCell id="KwXzedkXwJMO5qFz7Lfk-13" style="edgeStyle=orthogonalEdgeStyle;rounded=0;orthogonalLoop=1;jettySize=auto;html=1;entryX=0;entryY=0.75;entryDx=0;entryDy=0;" edge="1" parent="1" source="KwXzedkXwJMO5qFz7Lfk-10" target="KwXzedkXwJMO5qFz7Lfk-11">
          <mxGeometry relative="1" as="geometry" />
        </mxCell>
        <mxCell id="KwXzedkXwJMO5qFz7Lfk-32" style="edgeStyle=orthogonalEdgeStyle;rounded=0;orthogonalLoop=1;jettySize=auto;html=1;entryX=0;entryY=0.75;entryDx=0;entryDy=0;" edge="1" parent="1" source="KwXzedkXwJMO5qFz7Lfk-10" target="KwXzedkXwJMO5qFz7Lfk-31">
          <mxGeometry relative="1" as="geometry" />
        </mxCell>
        <mxCell id="KwXzedkXwJMO5qFz7Lfk-10" value="Amazon API Gateway" style="sketch=0;outlineConnect=0;fontColor=#232F3E;gradientColor=none;strokeColor=#ffffff;fillColor=#232F3E;dashed=0;verticalLabelPosition=middle;verticalAlign=bottom;align=center;html=1;whiteSpace=wrap;fontSize=10;fontStyle=1;spacing=3;shape=mxgraph.aws4.productIcon;prIcon=mxgraph.aws4.api_gateway;" vertex="1" parent="1">
          <mxGeometry x="30" y="200" width="80" height="110" as="geometry" />
        </mxCell>
        <mxCell id="KwXzedkXwJMO5qFz7Lfk-23" style="edgeStyle=orthogonalEdgeStyle;rounded=0;orthogonalLoop=1;jettySize=auto;html=1;" edge="1" parent="1" source="KwXzedkXwJMO5qFz7Lfk-11" target="KwXzedkXwJMO5qFz7Lfk-15">
          <mxGeometry relative="1" as="geometry" />
        </mxCell>
        <mxCell id="KwXzedkXwJMO5qFz7Lfk-24" style="edgeStyle=orthogonalEdgeStyle;rounded=0;orthogonalLoop=1;jettySize=auto;html=1;exitX=1;exitY=0.5;exitDx=0;exitDy=0;" edge="1" parent="1" source="KwXzedkXwJMO5qFz7Lfk-11" target="KwXzedkXwJMO5qFz7Lfk-16">
          <mxGeometry relative="1" as="geometry" />
        </mxCell>
        <mxCell id="KwXzedkXwJMO5qFz7Lfk-11" value="File Service" style="rounded=0;whiteSpace=wrap;html=1;fillColor=#f8cecc;strokeColor=#b85450;" vertex="1" parent="1">
          <mxGeometry x="175" y="210" width="120" height="60" as="geometry" />
        </mxCell>
        <mxCell id="KwXzedkXwJMO5qFz7Lfk-12" value="API:&lt;div&gt;uploadFile(File): POST/File - req File&amp;amp;File Metadata&amp;nbsp; response s3 file url&lt;/div&gt;&lt;div&gt;&lt;br&gt;&lt;/div&gt;&lt;div&gt;FetchFile(FileID) GET/fileid&amp;nbsp;&lt;/div&gt;&lt;div&gt;&lt;br&gt;&lt;/div&gt;&lt;div&gt;&lt;/div&gt;&lt;div&gt;PATCH - Update status in DB&lt;/div&gt;&lt;div&gt;&lt;br&gt;&lt;/div&gt;" style="text;html=1;align=left;verticalAlign=middle;whiteSpace=wrap;rounded=0;fillColor=#d0cee2;strokeColor=#56517e;" vertex="1" parent="1">
          <mxGeometry x="-320" y="490" width="350" height="110" as="geometry" />
        </mxCell>
        <mxCell id="KwXzedkXwJMO5qFz7Lfk-26" style="edgeStyle=orthogonalEdgeStyle;rounded=0;orthogonalLoop=1;jettySize=auto;html=1;entryX=0.5;entryY=0;entryDx=0;entryDy=0;" edge="1" parent="1" source="KwXzedkXwJMO5qFz7Lfk-15" target="KwXzedkXwJMO5qFz7Lfk-8">
          <mxGeometry relative="1" as="geometry" />
        </mxCell>
        <mxCell id="KwXzedkXwJMO5qFz7Lfk-15" value="Amazon S3" style="sketch=0;outlineConnect=0;fontColor=#232F3E;gradientColor=none;strokeColor=#ffffff;fillColor=#232F3E;dashed=0;verticalLabelPosition=middle;verticalAlign=bottom;align=center;html=1;whiteSpace=wrap;fontSize=10;fontStyle=1;spacing=3;shape=mxgraph.aws4.productIcon;prIcon=mxgraph.aws4.s3;" vertex="1" parent="1">
          <mxGeometry x="360" y="80" width="80" height="100" as="geometry" />
        </mxCell>
        <mxCell id="KwXzedkXwJMO5qFz7Lfk-16" value="Dynamo DB" style="strokeWidth=2;html=1;shape=mxgraph.flowchart.database;whiteSpace=wrap;" vertex="1" parent="1">
          <mxGeometry x="370" y="310" width="60" height="60" as="geometry" />
        </mxCell>
        <mxCell id="KwXzedkXwJMO5qFz7Lfk-19" value="File Metadata" style="swimlane;fontStyle=0;childLayout=stackLayout;horizontal=1;startSize=26;horizontalStack=0;resizeParent=1;resizeParentMax=0;resizeLast=0;collapsible=1;marginBottom=0;align=center;fontSize=14;" vertex="1" parent="1">
          <mxGeometry x="500" y="230" width="120" height="230" as="geometry" />
        </mxCell>
        <mxCell id="KwXzedkXwJMO5qFz7Lfk-20" value="File ID" style="text;strokeColor=none;fillColor=none;spacingLeft=4;spacingRight=4;overflow=hidden;rotatable=0;points=[[0,0.5],[1,0.5]];portConstraint=eastwest;fontSize=12;whiteSpace=wrap;html=1;" vertex="1" parent="KwXzedkXwJMO5qFz7Lfk-19">
          <mxGeometry y="26" width="120" height="30" as="geometry" />
        </mxCell>
        <mxCell id="KwXzedkXwJMO5qFz7Lfk-21" value="Name" style="text;strokeColor=none;fillColor=none;spacingLeft=4;spacingRight=4;overflow=hidden;rotatable=0;points=[[0,0.5],[1,0.5]];portConstraint=eastwest;fontSize=12;whiteSpace=wrap;html=1;" vertex="1" parent="KwXzedkXwJMO5qFz7Lfk-19">
          <mxGeometry y="56" width="120" height="30" as="geometry" />
        </mxCell>
        <mxCell id="KwXzedkXwJMO5qFz7Lfk-22" value="Mime Type&lt;div&gt;Size&lt;/div&gt;&lt;div&gt;s3 link&lt;/div&gt;&lt;div&gt;Status - Start/Done&lt;/div&gt;&lt;div&gt;Created Time&lt;/div&gt;&lt;div&gt;Update Time&lt;/div&gt;&lt;div&gt;Chunk : {&lt;/div&gt;&lt;div&gt;chunkid - fingerprint&lt;/div&gt;&lt;div&gt;temp s3 link&lt;/div&gt;&lt;div&gt;}&lt;/div&gt;" style="text;strokeColor=none;fillColor=none;spacingLeft=4;spacingRight=4;overflow=hidden;rotatable=0;points=[[0,0.5],[1,0.5]];portConstraint=eastwest;fontSize=12;whiteSpace=wrap;html=1;" vertex="1" parent="KwXzedkXwJMO5qFz7Lfk-19">
          <mxGeometry y="86" width="120" height="144" as="geometry" />
        </mxCell>
        <mxCell id="KwXzedkXwJMO5qFz7Lfk-25" value="Store file metadata to DB and upload file to s3. S3 returns a link to access the file" style="text;html=1;align=center;verticalAlign=middle;whiteSpace=wrap;rounded=0;" vertex="1" parent="1">
          <mxGeometry x="300" y="200" width="240" height="30" as="geometry" />
        </mxCell>
        <mxCell id="KwXzedkXwJMO5qFz7Lfk-27" value="To get the files, access the DB, it returns the link and directly hit the s3 bucket" style="text;html=1;align=center;verticalAlign=middle;whiteSpace=wrap;rounded=0;" vertex="1" parent="1">
          <mxGeometry x="-60" y="90" width="410" height="30" as="geometry" />
        </mxCell>
        <mxCell id="KwXzedkXwJMO5qFz7Lfk-28" value="File System" style="rounded=0;whiteSpace=wrap;html=1;fillColor=#dae8fc;strokeColor=#6c8ebf;" vertex="1" parent="1">
          <mxGeometry x="-90" y="240" width="60" height="30" as="geometry" />
        </mxCell>
        <mxCell id="KwXzedkXwJMO5qFz7Lfk-29" value="Local DB" style="shape=cylinder3;whiteSpace=wrap;html=1;boundedLbl=1;backgroundOutline=1;size=15;" vertex="1" parent="1">
          <mxGeometry x="-85" y="290" width="50" height="50" as="geometry" />
        </mxCell>
        <mxCell id="KwXzedkXwJMO5qFz7Lfk-36" value="" style="edgeStyle=orthogonalEdgeStyle;rounded=0;orthogonalLoop=1;jettySize=auto;html=1;" edge="1" parent="1" source="KwXzedkXwJMO5qFz7Lfk-31" target="KwXzedkXwJMO5qFz7Lfk-16">
          <mxGeometry relative="1" as="geometry" />
        </mxCell>
        <mxCell id="KwXzedkXwJMO5qFz7Lfk-42" style="edgeStyle=orthogonalEdgeStyle;rounded=0;orthogonalLoop=1;jettySize=auto;html=1;exitX=0.5;exitY=0;exitDx=0;exitDy=0;entryX=0.5;entryY=1;entryDx=0;entryDy=0;" edge="1" parent="1" source="KwXzedkXwJMO5qFz7Lfk-31" target="KwXzedkXwJMO5qFz7Lfk-11">
          <mxGeometry relative="1" as="geometry" />
        </mxCell>
        <mxCell id="KwXzedkXwJMO5qFz7Lfk-31" value="Sync Service" style="rounded=0;whiteSpace=wrap;html=1;fillColor=#d5e8d4;strokeColor=#82b366;" vertex="1" parent="1">
          <mxGeometry x="175" y="310" width="120" height="60" as="geometry" />
        </mxCell>
        <mxCell id="KwXzedkXwJMO5qFz7Lfk-47" value="" style="edgeStyle=orthogonalEdgeStyle;rounded=0;orthogonalLoop=1;jettySize=auto;html=1;" edge="1" parent="1" source="KwXzedkXwJMO5qFz7Lfk-33" target="KwXzedkXwJMO5qFz7Lfk-10">
          <mxGeometry relative="1" as="geometry" />
        </mxCell>
        <mxCell id="KwXzedkXwJMO5qFz7Lfk-33" value="Client System continuously polls to see if there is any update to the file&lt;div&gt;Also can have refresh button to maunally trigger&lt;/div&gt;&lt;div&gt;&lt;br&gt;&lt;/div&gt;&lt;div&gt;Sync to be consistent: Events queue&lt;/div&gt;&lt;div&gt;Sync to be faster: Polling&lt;/div&gt;" style="text;html=1;align=center;verticalAlign=middle;whiteSpace=wrap;rounded=0;fillColor=#d5e8d4;strokeColor=#82b366;" vertex="1" parent="1">
          <mxGeometry x="-50" y="360" width="205" height="100" as="geometry" />
        </mxCell>
        <mxCell id="KwXzedkXwJMO5qFz7Lfk-37" value="Get all changes since last 60 seconds" style="text;html=1;align=center;verticalAlign=middle;whiteSpace=wrap;rounded=0;fillColor=#d5e8d4;strokeColor=#82b366;" vertex="1" parent="1">
          <mxGeometry x="230" y="290" width="150" height="30" as="geometry" />
        </mxCell>
        <mxCell id="KwXzedkXwJMO5qFz7Lfk-38" value="Uploading 5GB file with 100Mbps takes (5*10^9*8)/(100*10^6)&amp;nbsp; =&amp;gt; 1 hr 20 mins&lt;br&gt;[1 byte =&amp;gt; 8 bits]&lt;div&gt;Upload chunks of file - Divide 5GB into 5MB&lt;br&gt;Finger print it and use it as id because we don&#39;t want to query DB for chunk ids&lt;/div&gt;" style="text;html=1;align=center;verticalAlign=middle;whiteSpace=wrap;rounded=0;fillColor=#fff2cc;strokeColor=#d6b656;" vertex="1" parent="1">
          <mxGeometry x="230" y="380" width="270" height="210" as="geometry" />
        </mxCell>
        <mxCell id="KwXzedkXwJMO5qFz7Lfk-43" value="Get temp url from s3 and upload directly" style="text;html=1;align=center;verticalAlign=middle;whiteSpace=wrap;rounded=0;fillColor=#d5e8d4;strokeColor=#82b366;" vertex="1" parent="1">
          <mxGeometry x="110" y="290" width="114" height="30" as="geometry" />
        </mxCell>
        <mxCell id="KwXzedkXwJMO5qFz7Lfk-44" value="Windows - FileSystemWatcher&lt;div&gt;MacOS - FSEvents&lt;/div&gt;" style="text;html=1;align=center;verticalAlign=middle;whiteSpace=wrap;rounded=0;fillColor=#dae8fc;strokeColor=#6c8ebf;" vertex="1" parent="1">
          <mxGeometry x="-240" y="220" width="130" height="70" as="geometry" />
        </mxCell>
        <mxCell id="KwXzedkXwJMO5qFz7Lfk-46" value="Remote Changed: Update the files through polling&lt;div&gt;Local Changed: Upload to remote as chunks&lt;/div&gt;" style="text;html=1;align=center;verticalAlign=middle;whiteSpace=wrap;rounded=0;fillColor=#f8cecc;strokeColor=#b85450;" vertex="1" parent="1">
          <mxGeometry x="-327" y="130" width="240" height="60" as="geometry" />
        </mxCell>
      </root>
    </mxGraphModel>
  </diagram>
</mxfile>
